<?xml version="1.0" encoding="utf-8"?>
<!-- Generator: $$$/GeneralStr/196=Adobe Illustrator 27.6.0, SVG Export Plug-In . SVG Version: 6.00 Build 0)  -->
<svg version="1.1" id="Calque_1" xmlns="http://www.w3.org/2000/svg" xmlns:xlink="http://www.w3.org/1999/xlink" x="0px" y="0px"
	 viewBox="0 0 445.3 286.4" style="enable-background:new 0 0 445.3 286.4;" xml:space="preserve">
<style type="text/css">
	.st0{fill:none;stroke:#1A171B;stroke-width:1.5;stroke-miterlimit:10;}
	.st1{fill:#1A171B;}
</style>
<g>
	<line class="st0" x1="181.6" y1="5.8" x2="182.1" y2="133.9"/>
	<line class="st0" x1="321.4" y1="52" x2="202.8" y2="169.5"/>
	<line class="st0" x1="52.1" y1="62.2" x2="160.8" y2="169"/>
	<line class="st0" x1="368.5" y1="118.2" x2="209.5" y2="179"/>
	<path class="st0" d="M258.2,177.9c-15.7,2.7-31.8,3.5-47.4,7.3"/>
	<path class="st0" d="M378.6,157.3c-23.6,3.9-46.8,6.6-70.3,11.7"/>
	<line class="st0" x1="112.3" y1="21.9" x2="167.9" y2="155.5"/>
	<line class="st0" x1="94.8" y1="59" x2="164.4" y2="163.3"/>
	<line class="st0" x1="148.6" y1="33.5" x2="172.6" y2="145.4"/>
	<line class="st0" x1="210.7" y1="43.1" x2="192.3" y2="137.9"/>
	<line class="st0" x1="272.9" y1="44.5" x2="200.9" y2="159.9"/>
	<line class="st0" x1="328.9" y1="95" x2="207.3" y2="173.7"/>
	<line class="st0" x1="40.7" y1="97.1" x2="157.3" y2="173.6"/>
	<line class="st0" x1="246.7" y1="19.1" x2="195.2" y2="155.5"/>
	<line class="st0" x1="158.3" y1="181.1" x2="50.9" y2="142.1"/>
	<line class="st0" x1="154.2" y1="185.2" x2="45.5" y2="166.3"/>
</g>
<g>
	<path class="st1" d="M4.8,103.5h58v15.9h-40v20.1h35.2v15.5H22.9v20.4h41.8v15.9H4.8V103.5z"/>
	<path class="st1" d="M97.3,103.5h18.1v87.7H97.3V103.5z"/>
	<path class="st1" d="M181.5,102.7h1.5l40.1,88.5h-19l-4.9-11.9h-34l-4.9,11.9h-17.4L181.5,102.7z M192.8,164.2l-5.5-13.3
		c-2.4-5.8-5-14.7-5.3-15.6c-0.1,0.4-2.7,9.5-5.2,15.6l-5.5,13.3H192.8z"/>
	<path class="st1" d="M250.4,103.5h26.9c26.9,0,46.2,17.9,46.2,43.8s-19.1,43.8-46.2,43.8h-26.9V103.5z M276.5,175.3
		c19.5,0,28.4-11.6,28.4-28c0-16.4-8.9-28-28.4-28h-8v56H276.5z"/>
</g>
<line class="st0" x1="4.8" y1="191.2" x2="439.2" y2="191.2"/>
<g>
	<path class="st1" d="M97.3,201.2h13v2.8h-9.8v6h8.7v2.7h-8.7v6.1h10.2v2.8H97.3V201.2z"/>
	<path class="st1" d="M113.5,211.4c0-6.1,4.7-10.4,10.5-10.4c3.7,0,6.4,1.4,8.2,4.1l-2.4,1.7c-1.1-1.8-3.1-2.9-5.7-2.9
		c-4.2,0-7.2,3.2-7.2,7.6c0,4.3,3,7.6,7.2,7.6c2.8,0,4.7-1.3,6-3.2l2.4,1.7c-1.8,2.7-4.6,4.3-8.5,4.3
		C118.2,221.8,113.5,217.4,113.5,211.4z"/>
	<path class="st1" d="M134.9,211.4c0-6.1,4.7-10.5,10.5-10.5c5.8,0,10.5,4.4,10.5,10.5s-4.7,10.5-10.5,10.5
		C139.6,221.8,134.9,217.4,134.9,211.4z M152.7,211.4c0-4.4-3-7.6-7.3-7.6s-7.3,3.3-7.3,7.6c0,4.3,3,7.6,7.3,7.6
		S152.7,215.7,152.7,211.4z"/>
	<path class="st1" d="M160,201.2h3.2v17.6h9.4v2.8H160V201.2z"/>
	<path class="st1" d="M176.3,201.2h13v2.8h-9.8v6h8.7v2.7h-8.7v6.1h10.2v2.8h-13.4V201.2z"/>
	<path class="st1" d="M200.9,201.2h3.1v20.4h-3.1V201.2z"/>
	<path class="st1" d="M213.7,209.6c-0.8-0.9-1.9-2.3-1.9-2.3s0.2,1.7,0.2,2.9v11.2H209v-20.6h0.4l11.2,12.1c0.8,0.8,1.9,2.3,1.9,2.3
		s-0.2-1.8-0.2-2.9v-11.2h2.9v20.6h-0.4L213.7,209.6z"/>
	<path class="st1" d="M234.8,203.9h-6.1v-2.8H244v2.8H238v17.6h-3.2V203.9z"/>
	<path class="st1" d="M247.4,201.2h13v2.8h-9.8v6h8.7v2.7h-8.7v6.1h10.2v2.8h-13.4V201.2z"/>
	<path class="st1" d="M265,201.2h6.8c4.2,0,7.4,2,7.4,6.5c0,3-1.6,5-4.1,5.8l4.8,8.1h-3.6l-4.4-7.6h-3.7v7.6H265V201.2z
		 M271.8,211.3c2.7,0,4.3-1.1,4.3-3.7c0-2.6-1.6-3.7-4.3-3.7h-3.5v7.4H271.8z"/>
	<path class="st1" d="M288.2,209.6c-0.8-0.9-1.9-2.3-1.9-2.3s0.2,1.7,0.2,2.9v11.2h-2.9v-20.6h0.4l11.2,12.1
		c0.8,0.8,1.9,2.3,1.9,2.3s-0.2-1.8-0.2-2.9v-11.2h2.9v20.6h-0.4L288.2,209.6z"/>
	<path class="st1" d="M311.9,200.9h0.4l8.9,20.6h-3.3l-1.5-3.7h-8.7l-1.5,3.7h-3.1L311.9,200.9z M315.2,215.2l-2.2-5.5
		c-0.4-1.1-1-2.9-1-3c0,0.1-0.5,1.8-1,3l-2.2,5.5H315.2z"/>
	<path class="st1" d="M326.5,203.9h-6.1v-2.8h15.3v2.8h-6.1v17.6h-3.2V203.9z"/>
	<path class="st1" d="M339.3,201.2h3.1v20.4h-3.1V201.2z"/>
	<path class="st1" d="M346.5,211.4c0-6.1,4.7-10.5,10.5-10.5c5.8,0,10.5,4.4,10.5,10.5s-4.7,10.5-10.5,10.5
		C351.2,221.8,346.5,217.4,346.5,211.4z M364.3,211.4c0-4.4-3-7.6-7.3-7.6s-7.3,3.3-7.3,7.6c0,4.3,3,7.6,7.3,7.6
		S364.3,215.7,364.3,211.4z"/>
	<path class="st1" d="M376.2,209.6c-0.8-0.9-1.9-2.3-1.9-2.3s0.2,1.7,0.2,2.9v11.2h-2.9v-20.6h0.4l11.2,12.1
		c0.8,0.8,1.9,2.3,1.9,2.3s-0.2-1.8-0.2-2.9v-11.2h2.9v20.6h-0.4L376.2,209.6z"/>
	<path class="st1" d="M399.9,200.9h0.4l8.9,20.6h-3.3l-1.5-3.7h-8.7l-1.5,3.7h-3.1L399.9,200.9z M403.2,215.2l-2.2-5.5
		c-0.4-1.1-1-2.9-1-3c0,0.1-0.5,1.8-1,3l-2.2,5.5H403.2z"/>
	<path class="st1" d="M412.5,201.2h3.2v17.6h9.4v2.8h-12.6V201.2z"/>
	<path class="st1" d="M428.8,201.2h13v2.8H432v6h8.7v2.7H432v6.1h10.2v2.8h-13.4V201.2z"/>
	<path class="st1" d="M97.3,230.9h5.6c6.5,0,10.9,4.1,10.9,10.2c0,6.1-4.3,10.2-10.9,10.2h-5.6V230.9z M102.7,248.5
		c5.3,0,7.8-3.1,7.8-7.4c0-4.4-2.5-7.4-7.8-7.4h-2.2v14.8H102.7z"/>
	<path class="st1" d="M117.3,234.4c-0.6-0.2-1.1-0.9-1.1-1.8c0-1.1,0.9-2,1.9-2c1.1,0,2,0.8,2,2c0,0.7-0.2,1.2-0.6,1.9l-1.7,3.2
		h-1.5L117.3,234.4z"/>
	<path class="st1" d="M127.3,230.7h0.4l8.9,20.6h-3.3l-1.5-3.7h-8.7l-1.5,3.7h-3.1L127.3,230.7z M130.6,244.9l-2.2-5.5
		c-0.4-1.1-1-2.9-1-3c0,0.1-0.5,1.8-1,3l-2.2,5.5H130.6z"/>
	<path class="st1" d="M137.3,241.1c0-6.1,4.7-10.4,10.5-10.4c3.7,0,6.4,1.4,8.2,4.1l-2.4,1.7c-1.1-1.8-3.1-2.9-5.7-2.9
		c-4.2,0-7.2,3.2-7.2,7.6c0,4.3,3,7.6,7.2,7.6c2.8,0,4.7-1.3,6-3.2l2.4,1.7c-1.8,2.7-4.6,4.3-8.5,4.3
		C142,251.5,137.3,247.2,137.3,241.1z"/>
	<path class="st1" d="M164.2,233.7h-6.1v-2.8h15.3v2.8h-6.1v17.6h-3.2V233.7z"/>
	<path class="st1" d="M176.9,230.9h13v2.8h-9.8v6h8.7v2.7h-8.7v6.1h10.2v2.8h-13.4V230.9z"/>
	<path class="st1" d="M194.2,244.1v-13.2h3.2v13c0,3.3,1.6,4.8,4.6,4.8s4.6-1.5,4.6-4.8v-13h3.1v13.2c0,5-3.4,7.4-7.8,7.4
		C197.5,251.5,194.2,249,194.2,244.1z"/>
	<path class="st1" d="M214.6,230.9h6.8c4.2,0,7.4,2,7.4,6.5c0,3-1.6,5-4.1,5.8l4.8,8.1h-3.6l-4.4-7.6h-3.7v7.6h-3.2V230.9z
		 M221.3,241c2.7,0,4.3-1.1,4.3-3.7c0-2.6-1.6-3.7-4.3-3.7h-3.5v7.4H221.3z"/>
	<path class="st1" d="M231.9,241.7c0-1.2,1-2,2.1-2c1.1,0,2,0.8,2,2c0,1.2-1,2.1-2,2.1C232.8,243.8,231.9,243,231.9,241.7z"/>
	<path class="st1" d="M239.7,230.9h6.8c4.2,0,7.4,2,7.4,6.5c0,3-1.6,5-4.1,5.8l4.8,8.1H251l-4.4-7.6h-3.7v7.6h-3.2V230.9z
		 M246.4,241c2.7,0,4.3-1.1,4.3-3.7c0-2.6-1.6-3.7-4.3-3.7h-3.5v7.4H246.4z"/>
	<path class="st1" d="M258.3,230.9h3.1v20.4h-3.1V230.9z"/>
	<path class="st1" d="M265.6,241.1c0-6.1,4.7-10.4,10.5-10.4c3.7,0,6.4,1.4,8.2,4.1l-2.4,1.7c-1.1-1.8-3.1-2.9-5.7-2.9
		c-4.2,0-7.2,3.2-7.2,7.6c0,4.3,3,7.6,7.2,7.6c2.8,0,4.7-1.3,6-3.2l2.4,1.7c-1.8,2.7-4.6,4.3-8.5,4.3
		C270.2,251.5,265.6,247.2,265.6,241.1z"/>
	<path class="st1" d="M288.1,230.9h13v2.8h-9.8v6h8.7v2.7h-8.7v6.1h10.2v2.8h-13.4V230.9z"/>
	<path class="st1" d="M304.5,241.7c0-1.2,1-2,2.1-2c1.1,0,2,0.8,2,2c0,1.2-1,2.1-2,2.1C305.5,243.8,304.5,243,304.5,241.7z"/>
	<path class="st1" d="M310.6,247.3l2.6-1.4c1,1.6,2.2,2.8,4.7,2.8c2.1,0,3.5-1.1,3.5-2.8c0-1.8-1.2-2.5-3.4-3.5l-1.4-0.6
		c-3-1.3-4.8-2.8-4.8-6c0-3,2.3-5.2,5.7-5.2c2.7,0,4.5,1,5.8,3.2l-2.5,1.5c-0.8-1.3-1.7-2-3.3-2c-1.6,0-2.6,1-2.6,2.4
		c0,1.5,0.9,2.2,2.9,3.1l1.3,0.6c3.5,1.5,5.3,3.1,5.3,6.4c0,3.6-2.8,5.6-6.6,5.6C314,251.5,311.7,249.6,310.6,247.3z"/>
	<path class="st1" d="M97.3,260.6h5.6c6.5,0,10.9,4.1,10.9,10.2c0,6.1-4.3,10.2-10.9,10.2h-5.6V260.6z M102.7,278.2
		c5.3,0,7.8-3.1,7.8-7.4c0-4.4-2.5-7.4-7.8-7.4h-2.2v14.8H102.7z"/>
	<path class="st1" d="M117.7,260.6h13v2.8h-9.8v6h8.7v2.7h-8.7v6.1h10.2v2.8h-13.4V260.6z"/>
	<path class="st1" d="M142.2,260.6h5.6c6.5,0,10.9,4.1,10.9,10.2c0,6.1-4.3,10.2-10.9,10.2h-5.6V260.6z M147.6,278.2
		c5.3,0,7.8-3.1,7.8-7.4c0-4.4-2.5-7.4-7.8-7.4h-2.2v14.8H147.6z"/>
	<path class="st1" d="M168.1,260.4h0.4l8.9,20.6h-3.3l-1.5-3.7H164l-1.5,3.7h-3.1L168.1,260.4z M171.5,274.6l-2.2-5.5
		c-0.4-1.1-1-2.9-1-3c0,0.1-0.5,1.8-1,3l-2.2,5.5H171.5z"/>
	<path class="st1" d="M180.8,260.6h3.2v8c0,1-0.1,2.2-0.2,3c0.5-0.9,1.1-2,1.6-2.7l6.7-8.3h3.6l-7.2,9l8,11.4h-3.8l-6.3-9l-2.3,2.8
		v6.2h-3.2V260.6z"/>
	<path class="st1" d="M206.7,260.4h0.4L216,281h-3.3l-1.5-3.7h-8.7l-1.5,3.7H198L206.7,260.4z M210.1,274.6l-2.2-5.5
		c-0.4-1.1-1-2.9-1-3c0,0.1-0.5,1.8-1,3l-2.2,5.5H210.1z"/>
	<path class="st1" d="M219.4,260.6h6.8c4.2,0,7.4,2,7.4,6.5c0,3-1.6,5-4.1,5.9l4.8,8.1h-3.6l-4.4-7.6h-3.7v7.6h-3.2V260.6z
		 M226.1,270.8c2.7,0,4.3-1.1,4.3-3.7c0-2.6-1.6-3.7-4.3-3.7h-3.5v7.4H226.1z"/>
</g>
</svg>
