<?xml version="1.0" encoding="utf-8"?>
<!-- Generator: Adobe Illustrator 25.3.1, SVG Export Plug-In . SVG Version: 6.00 Build 0)  -->
<svg version="1.1" id="Calque_1" xmlns="http://www.w3.org/2000/svg" xmlns:xlink="http://www.w3.org/1999/xlink" x="0px" y="0px"
	 viewBox="0 0 445.3 286.4" style="enable-background:new 0 0 445.3 286.4;" xml:space="preserve">
<style type="text/css">
	.st0{fill:#066EA5;}
	.st1{fill:none;stroke:#066EA5;stroke-width:1.5;stroke-miterlimit:10;}
</style>
<g>
	<g>
		<g>
			<path class="st0" d="M97.1,198.7h12.8v2.8h-9.7v5.9h8.6v2.7h-8.6v6h10.1v2.8H97.1V198.7z"/>
			<path class="st0" d="M113.2,208.8c0-6,4.6-10.3,10.4-10.3c3.6,0,6.3,1.3,8.1,4l-2.4,1.7c-1.1-1.8-3-2.9-5.7-2.9
				c-4.2,0-7.2,3.2-7.2,7.5s3,7.5,7.2,7.5c2.8,0,4.7-1.2,6-3.2l2.4,1.7c-1.8,2.7-4.6,4.3-8.4,4.3
				C117.8,219.2,113.2,214.9,113.2,208.8z"/>
			<path class="st0" d="M134.4,208.8c0-6,4.6-10.4,10.4-10.4c5.8,0,10.4,4.3,10.4,10.4c0,6-4.6,10.4-10.4,10.4
				S134.4,214.9,134.4,208.8z M152,208.8c0-4.3-3-7.5-7.2-7.5s-7.2,3.2-7.2,7.5s3,7.5,7.2,7.5S152,213.1,152,208.8z"/>
			<path class="st0" d="M159.2,198.7h3.1v17.4h9.3v2.8h-12.5L159.2,198.7L159.2,198.7z"/>
			<path class="st0" d="M175.4,198.7h12.8v2.8h-9.7v5.9h8.6v2.7h-8.6v6h10.1v2.8h-13.2L175.4,198.7L175.4,198.7z"/>
			<path class="st0" d="M199.7,198.7h3.1v20.2h-3.1V198.7z"/>
			<path class="st0" d="M212.4,207.1c-0.8-0.9-1.9-2.3-1.9-2.3s0.2,1.7,0.2,2.9v11.1h-2.9v-20.4h0.4l11.1,12
				c0.8,0.8,1.9,2.3,1.9,2.3s-0.2-1.8-0.2-2.9v-11.1h2.9v20.4h-0.4L212.4,207.1z"/>
			<path class="st0" d="M233.3,201.5h-6v-2.8h15.1v2.8h-6v17.4h-3.1V201.5z"/>
			<path class="st0" d="M245.8,198.7h12.8v2.8H249v5.9h8.6v2.7H249v6h10.1v2.8h-13.2v-20.2H245.8z"/>
			<path class="st0" d="M263.3,198.7h6.8c4.2,0,7.3,2,7.3,6.4c0,3-1.6,4.9-4.1,5.8l4.8,8h-3.6l-4.4-7.5h-3.7v7.5h-3.1L263.3,198.7
				L263.3,198.7z M269.9,208.8c2.7,0,4.2-1.1,4.2-3.7c0-2.6-1.6-3.7-4.2-3.7h-3.5v7.3L269.9,208.8L269.9,208.8z"/>
			<path class="st0" d="M286.2,207.1c-0.8-0.9-1.9-2.3-1.9-2.3s0.2,1.7,0.2,2.9v11.1h-2.9v-20.4h0.4l11.1,12
				c0.8,0.8,1.9,2.3,1.9,2.3s-0.2-1.8-0.2-2.9v-11.1h2.9v20.4h-0.4L286.2,207.1z"/>
			<path class="st0" d="M309.6,198.5h0.4l8.9,20.4h-3.3l-1.5-3.7h-8.6l-1.5,3.7h-3L309.6,198.5z M313,212.6l-2.2-5.5
				c-0.4-1.1-1-2.8-1-3c0,0.1-0.5,1.8-1,3l-2.2,5.5H313z"/>
			<path class="st0" d="M324.1,201.5h-6v-2.8h15.1v2.8h-6v17.4h-3.1V201.5z"/>
			<path class="st0" d="M336.8,198.7h3.1v20.2h-3.1V198.7z"/>
			<path class="st0" d="M343.9,208.8c0-6,4.6-10.4,10.4-10.4s10.4,4.3,10.4,10.4c0,6-4.6,10.4-10.4,10.4
				C348.6,219.2,343.9,214.9,343.9,208.8z M361.5,208.8c0-4.3-3-7.5-7.2-7.5s-7.2,3.2-7.2,7.5s3,7.5,7.2,7.5
				S361.5,213.1,361.5,208.8z"/>
			<path class="st0" d="M373.3,207.1c-0.8-0.9-1.9-2.3-1.9-2.3s0.2,1.7,0.2,2.9v11.1h-2.9v-20.4h0.4l11.1,12
				c0.8,0.8,1.9,2.3,1.9,2.3s-0.2-1.8-0.2-2.9v-11.1h2.9v20.4h-0.4L373.3,207.1z"/>
			<path class="st0" d="M396.8,198.5h0.4l8.9,20.4h-3.3l-1.5-3.7h-8.6l-1.5,3.7h-3L396.8,198.5z M400.1,212.6l-2.2-5.5
				c-0.4-1.1-1-2.8-1-3c0,0.1-0.5,1.8-1,3l-2.2,5.5H400.1z"/>
			<path class="st0" d="M409.3,198.7h3.1v17.4h9.3v2.8h-12.5v-20.2H409.3z"/>
			<path class="st0" d="M425.5,198.7h12.8v2.8h-9.7v5.9h8.6v2.7h-8.6v6h10.1v2.8h-13.2L425.5,198.7L425.5,198.7z"/>
			<path class="st0" d="M97.1,228.9h5.6c6.5,0,10.8,4,10.8,10.1s-4.3,10.1-10.8,10.1h-5.6V228.9z M102.4,246.3c5.3,0,7.7-3,7.7-7.3
				s-2.5-7.3-7.7-7.3h-2.2v14.7L102.4,246.3L102.4,246.3z"/>
			<path class="st0" d="M116.9,232.4c-0.6-0.2-1.1-0.9-1.1-1.8c0-1.1,0.9-2,1.9-2c1.1,0,2,0.8,2,1.9c0,0.7-0.2,1.2-0.6,1.9l-1.7,3.2
				h-1.5L116.9,232.4z"/>
			<path class="st0" d="M126.8,228.7h0.4l8.9,20.4h-3.3l-1.5-3.7h-8.6l-1.5,3.7h-3L126.8,228.7z M130.1,242.8l-2.2-5.5
				c-0.4-1.1-1-2.8-1-3c0,0.1-0.5,1.8-1,3l-2.2,5.5H130.1z"/>
			<path class="st0" d="M136.8,239c0-6,4.6-10.3,10.4-10.3c3.6,0,6.3,1.3,8.1,4l-2.4,1.7c-1.1-1.8-3-2.9-5.7-2.9
				c-4.2,0-7.2,3.2-7.2,7.5s3,7.5,7.2,7.5c2.8,0,4.7-1.2,6-3.2l2.4,1.7c-1.8,2.7-4.6,4.3-8.4,4.3C141.4,249.4,136.8,245,136.8,239z"
				/>
			<path class="st0" d="M163.4,231.7h-6v-2.8h15.1v2.8h-6v17.4h-3.1V231.7z"/>
			<path class="st0" d="M175.9,228.9h12.8v2.8H179v5.9h8.6v2.7H179v6h10.1v2.8h-13.3L175.9,228.9L175.9,228.9z"/>
			<path class="st0" d="M193.1,242v-13.1h3.1v12.9c0,3.3,1.6,4.7,4.5,4.7s4.6-1.5,4.6-4.7v-12.9h3.1V242c0,4.9-3.3,7.4-7.7,7.4
				C196.4,249.4,193.1,246.9,193.1,242z"/>
			<path class="st0" d="M213.3,228.9h6.8c4.2,0,7.3,2,7.3,6.4c0,3-1.6,4.9-4.1,5.8l4.8,8h-3.6l-4.4-7.5h-3.7v7.5h-3.1V228.9z
				 M219.9,239c2.7,0,4.2-1.1,4.2-3.7c0-2.6-1.6-3.7-4.2-3.7h-3.5v7.3L219.9,239L219.9,239z"/>
			<path class="st0" d="M230.6,247.2c0-1.2,1-2,2-2c1.1,0,2,0.8,2,2s-1,2.1-2,2.1C231.5,249.3,230.6,248.4,230.6,247.2z"/>
			<path class="st0" d="M239.4,231.7h-6v-2.8h15.1v2.8h-6v17.4h-3.1V231.7z"/>
			<path class="st0" d="M251.9,228.9h6.8c4.2,0,7.3,2,7.3,6.4c0,3-1.6,4.9-4.1,5.8l4.8,8h-3.6l-4.4-7.5H255v7.5h-3.1V228.9
				L251.9,228.9z M258.6,239c2.7,0,4.2-1.1,4.2-3.7c0-2.6-1.6-3.7-4.2-3.7h-3.5v7.3L258.6,239L258.6,239z"/>
			<path class="st0" d="M270.4,228.9h3.1v20.2h-3.1V228.9z"/>
			<path class="st0" d="M277.5,239c0-6,4.6-10.3,10.4-10.3c3.6,0,6.3,1.3,8.1,4l-2.4,1.7c-1.1-1.8-3-2.9-5.7-2.9
				c-4.2,0-7.2,3.2-7.2,7.5s3,7.5,7.2,7.5c2.8,0,4.7-1.2,6-3.2l2.4,1.7c-1.8,2.7-4.6,4.3-8.4,4.3C282.2,249.4,277.5,245,277.5,239z"
				/>
			<path class="st0" d="M299.8,228.9h12.8v2.8H303v5.9h8.6v2.7H303v6h10.1v2.8h-13.2v-20.2H299.8z"/>
			<path class="st0" d="M316.6,247.2c0-1.2,1-2,2-2c1.1,0,2,0.8,2,2s-1,2.1-2,2.1C317.5,249.3,316.6,248.4,316.6,247.2z"/>
			<path class="st0" d="M322.8,245.2l2.6-1.4c1,1.6,2.2,2.8,4.6,2.8c2,0,3.5-1.1,3.5-2.8c0-1.8-1.2-2.5-3.4-3.5l-1.3-0.6
				c-2.9-1.3-4.7-2.8-4.7-5.9c0-3,2.3-5.1,5.7-5.1c2.7,0,4.5,1,5.7,3.2l-2.5,1.5c-0.8-1.3-1.7-2-3.2-2c-1.6,0-2.6,1-2.6,2.3
				c0,1.5,0.9,2.2,2.9,3.1l1.3,0.6c3.4,1.5,5.3,3.1,5.3,6.4c0,3.5-2.8,5.6-6.6,5.6C326.3,249.4,324,247.5,322.8,245.2z"/>
			<path class="st0" d="M97.1,259.1h5.6c6.5,0,10.8,4,10.8,10.1s-4.3,10.1-10.8,10.1h-5.6V259.1z M102.4,276.5c5.3,0,7.7-3,7.7-7.3
				s-2.5-7.3-7.7-7.3h-2.2v14.7h2.2V276.5z"/>
			<path class="st0" d="M117.4,259.1h12.8v2.8h-9.7v5.9h8.6v2.7h-8.6v6h10.1v2.8h-13.3L117.4,259.1L117.4,259.1z"/>
			<path class="st0" d="M141.6,259.1h5.6c6.5,0,10.8,4,10.8,10.1s-4.3,10.1-10.8,10.1h-5.6V259.1z M146.9,276.5c5.3,0,7.7-3,7.7-7.3
				s-2.5-7.3-7.7-7.3h-2.2v14.7h2.2V276.5z"/>
			<path class="st0" d="M167.3,258.9h0.4l8.9,20.4h-3.3l-1.5-3.7h-8.6l-1.5,3.7h-3L167.3,258.9z M170.6,273l-2.2-5.5
				c-0.4-1.1-1-2.8-1-3c0,0.1-0.5,1.8-1,3l-2.2,5.5H170.6z"/>
			<path class="st0" d="M179.8,259.1h3.1v7.9c0,1-0.1,2.2-0.2,3c0.5-0.9,1-2,1.6-2.7l6.6-8.2h3.5l-7.1,8.9l7.9,11.3h-3.8l-6.2-8.9
				l-2.3,2.8v6.1h-3.1V259.1z"/>
			<path class="st0" d="M205.5,258.9h0.4l8.9,20.4h-3.3l-1.5-3.7h-8.6l-1.5,3.7h-3L205.5,258.9z M208.8,273l-2.2-5.5
				c-0.4-1.1-1-2.8-1-3c0,0.1-0.5,1.8-1,3l-2.2,5.5H208.8z"/>
			<path class="st0" d="M218,259.1h6.8c4.2,0,7.3,2,7.3,6.4c0,3-1.6,4.9-4.1,5.8l4.8,8h-3.6l-4.4-7.5h-3.7v7.5H218V259.1z
				 M224.7,269.1c2.7,0,4.2-1.1,4.2-3.7s-1.6-3.7-4.2-3.7h-3.5v7.3h3.5V269.1z"/>
		</g>
		<g>
			<line class="st1" x1="181.4" y1="3.5" x2="181.8" y2="131.6"/>
			<line class="st1" x1="321.1" y1="49.6" x2="202.5" y2="167.2"/>
			<line class="st1" x1="51.8" y1="59.9" x2="160.5" y2="166.6"/>
			<line class="st1" x1="368.2" y1="115.9" x2="209.2" y2="176.7"/>
			<path class="st1" d="M257.9,175.6c-15.7,2.7-31.8,3.5-47.4,7.3"/>
			<path class="st1" d="M378.3,155c-23.6,3.9-46.8,6.6-70.3,11.7"/>
			<line class="st1" x1="112.1" y1="19.5" x2="167.6" y2="153.2"/>
			<line class="st1" x1="94.5" y1="56.6" x2="164.1" y2="161"/>
			<line class="st1" x1="148.3" y1="31.2" x2="172.3" y2="143.1"/>
			<line class="st1" x1="210.5" y1="40.8" x2="192" y2="135.5"/>
			<line class="st1" x1="272.6" y1="42.1" x2="200.6" y2="157.6"/>
			<line class="st1" x1="328.6" y1="92.7" x2="207.1" y2="171.3"/>
			<line class="st1" x1="40.4" y1="94.7" x2="157" y2="171.3"/>
			<line class="st1" x1="246.5" y1="16.8" x2="194.9" y2="153.2"/>
			<line class="st1" x1="158" y1="178.7" x2="50.7" y2="139.8"/>
			<line class="st1" x1="153.9" y1="182.8" x2="45.3" y2="163.9"/>
		</g>
		<g>
			<path class="st0" d="M4.5,101.2h58V117h-40v20.1h35.2v15.5H22.6V173h41.8v15.9H4.5V101.2z"/>
			<path class="st0" d="M97,101.2h18v87.7H97V101.2z"/>
			<path class="st0" d="M181.2,100.4h1.5l40.1,88.5h-19L199,177h-34l-4.9,11.9h-17.4L181.2,100.4z M192.5,161.9l-5.5-13.3
				c-2.4-5.8-5-14.7-5.3-15.6c-0.1,0.4-2.7,9.5-5.2,15.6l-5.5,13.3H192.5z"/>
			<path class="st0" d="M250.2,101.2h26.9c26.9,0,46.2,17.9,46.2,43.8s-19.1,43.8-46.2,43.8h-26.9L250.2,101.2L250.2,101.2z
				 M276.2,173c19.5,0,28.4-11.6,28.4-28s-8.9-28-28.4-28h-8v56H276.2z"/>
		</g>
	</g>
	<line class="st1" x1="4.5" y1="188.8" x2="438.9" y2="188.8"/>
</g>
</svg>
