<?xml version="1.0" encoding="utf-8"?>
<!-- Generator: $$$/GeneralStr/196=Adobe Illustrator 27.6.0, SVG Export Plug-In . SVG Version: 6.00 Build 0)  -->
<svg version="1.1" id="Calque_1" xmlns="http://www.w3.org/2000/svg" xmlns:xlink="http://www.w3.org/1999/xlink" x="0px" y="0px"
	 viewBox="0 0 445.3 286.4" style="enable-background:new 0 0 445.3 286.4;" xml:space="preserve">
<style type="text/css">
	.st0{fill:none;stroke:#066EA5;stroke-width:1.5;stroke-miterlimit:10;}
	.st1{fill:#066EA5;}
</style>
<g>
	<line class="st0" x1="181.9" y1="4" x2="182.4" y2="132.1"/>
	<line class="st0" x1="321.7" y1="50.1" x2="203.1" y2="167.7"/>
	<line class="st0" x1="52.4" y1="60.4" x2="161.1" y2="167.1"/>
	<line class="st0" x1="368.8" y1="116.4" x2="209.8" y2="177.2"/>
	<path class="st0" d="M258.5,176.1c-15.7,2.7-31.8,3.5-47.4,7.3"/>
	<path class="st0" d="M378.9,155.5c-23.6,3.9-46.8,6.6-70.3,11.7"/>
	<line class="st0" x1="112.6" y1="20.1" x2="168.2" y2="153.7"/>
	<line class="st0" x1="95.1" y1="57.1" x2="164.7" y2="161.5"/>
	<line class="st0" x1="148.9" y1="31.7" x2="172.9" y2="143.6"/>
	<line class="st0" x1="211" y1="41.3" x2="192.6" y2="136"/>
	<line class="st0" x1="273.2" y1="42.6" x2="201.2" y2="158.1"/>
	<line class="st0" x1="329.2" y1="93.2" x2="207.6" y2="171.8"/>
	<line class="st0" x1="41" y1="95.2" x2="157.6" y2="171.8"/>
	<line class="st0" x1="247" y1="17.3" x2="195.5" y2="153.7"/>
	<line class="st0" x1="158.6" y1="179.2" x2="51.2" y2="140.3"/>
	<line class="st0" x1="154.5" y1="183.3" x2="45.8" y2="164.4"/>
</g>
<g>
	<path class="st1" d="M5.1,101.7h58v15.9h-40v20.1h35.2v15.5H23.2v20.4h41.8v15.9H5.1V101.7z"/>
	<path class="st1" d="M97.6,101.7h18.1v87.7H97.6V101.7z"/>
	<path class="st1" d="M181.8,100.9h1.5l40.1,88.5h-19l-4.9-11.9h-34l-4.9,11.9h-17.4L181.8,100.9z M193.1,162.4l-5.5-13.3
		c-2.4-5.8-5-14.7-5.3-15.6c-0.1,0.4-2.7,9.5-5.2,15.6l-5.5,13.3H193.1z"/>
	<path class="st1" d="M250.7,101.7h26.9c26.9,0,46.2,17.9,46.2,43.8s-19.1,43.8-46.2,43.8h-26.9V101.7z M276.8,173.5
		c19.5,0,28.4-11.6,28.4-28c0-16.4-8.9-28-28.4-28h-8v56H276.8z"/>
</g>
<line class="st0" x1="5.1" y1="189.3" x2="439.5" y2="189.3"/>
<g>
	<path class="st1" d="M97.6,199.3h13v2.8h-9.8v6h8.7v2.7h-8.7v6.1h10.2v2.8H97.6V199.3z"/>
	<path class="st1" d="M113.8,209.5c0-6.1,4.7-10.4,10.5-10.4c3.7,0,6.4,1.4,8.2,4.1l-2.4,1.7c-1.1-1.8-3.1-2.9-5.7-2.9
		c-4.2,0-7.2,3.2-7.2,7.6c0,4.3,3,7.6,7.2,7.6c2.8,0,4.7-1.3,6-3.2l2.4,1.7c-1.8,2.7-4.6,4.3-8.5,4.3
		C118.5,220,113.8,215.6,113.8,209.5z"/>
	<path class="st1" d="M135.2,209.5c0-6.1,4.7-10.5,10.5-10.5c5.8,0,10.5,4.4,10.5,10.5s-4.7,10.5-10.5,10.5
		C139.9,220,135.2,215.6,135.2,209.5z M153,209.5c0-4.4-3-7.6-7.3-7.6s-7.3,3.3-7.3,7.6c0,4.3,3,7.6,7.3,7.6S153,213.9,153,209.5z"
		/>
	<path class="st1" d="M160.3,199.3h3.2v17.6h9.4v2.8h-12.6V199.3z"/>
	<path class="st1" d="M176.6,199.3h13v2.8h-9.8v6h8.7v2.7h-8.7v6.1H190v2.8h-13.4V199.3z"/>
	<path class="st1" d="M201.2,199.3h3.1v20.4h-3.1V199.3z"/>
	<path class="st1" d="M214,207.8c-0.8-0.9-1.9-2.3-1.9-2.3s0.2,1.7,0.2,2.9v11.2h-2.9v-20.6h0.4l11.2,12.1c0.8,0.8,1.9,2.3,1.9,2.3
		s-0.2-1.8-0.2-2.9v-11.2h2.9v20.6h-0.4L214,207.8z"/>
	<path class="st1" d="M235.1,202.1H229v-2.8h15.3v2.8h-6.1v17.6h-3.2V202.1z"/>
	<path class="st1" d="M247.7,199.3h13v2.8h-9.8v6h8.7v2.7h-8.7v6.1h10.2v2.8h-13.4V199.3z"/>
	<path class="st1" d="M265.3,199.3h6.8c4.2,0,7.4,2,7.4,6.5c0,3-1.6,5-4.1,5.8l4.8,8.1h-3.6l-4.4-7.6h-3.7v7.6h-3.2V199.3z
		 M272.1,209.5c2.7,0,4.3-1.1,4.3-3.7c0-2.6-1.6-3.7-4.3-3.7h-3.5v7.4H272.1z"/>
	<path class="st1" d="M288.5,207.8c-0.8-0.9-1.9-2.3-1.9-2.3s0.2,1.7,0.2,2.9v11.2h-2.9v-20.6h0.4l11.2,12.1
		c0.8,0.8,1.9,2.3,1.9,2.3s-0.2-1.8-0.2-2.9v-11.2h2.9v20.6h-0.4L288.5,207.8z"/>
	<path class="st1" d="M312.2,199.1h0.4l8.9,20.6h-3.3l-1.5-3.7H308l-1.5,3.7h-3.1L312.2,199.1z M315.5,213.4l-2.2-5.5
		c-0.4-1.1-1-2.9-1-3c0,0.1-0.5,1.8-1,3l-2.2,5.5H315.5z"/>
	<path class="st1" d="M326.8,202.1h-6.1v-2.8H336v2.8H330v17.6h-3.2V202.1z"/>
	<path class="st1" d="M339.6,199.3h3.1v20.4h-3.1V199.3z"/>
	<path class="st1" d="M346.8,209.5c0-6.1,4.7-10.5,10.5-10.5c5.8,0,10.5,4.4,10.5,10.5s-4.7,10.5-10.5,10.5
		C351.5,220,346.8,215.6,346.8,209.5z M364.6,209.5c0-4.4-3-7.6-7.3-7.6s-7.3,3.3-7.3,7.6c0,4.3,3,7.6,7.3,7.6
		S364.6,213.9,364.6,209.5z"/>
	<path class="st1" d="M376.5,207.8c-0.8-0.9-1.9-2.3-1.9-2.3s0.2,1.7,0.2,2.9v11.2h-2.9v-20.6h0.4l11.2,12.1
		c0.8,0.8,1.9,2.3,1.9,2.3s-0.2-1.8-0.2-2.9v-11.2h2.9v20.6h-0.4L376.5,207.8z"/>
	<path class="st1" d="M400.2,199.1h0.4l8.9,20.6h-3.3l-1.5-3.7H396l-1.5,3.7h-3.1L400.2,199.1z M403.5,213.4l-2.2-5.5
		c-0.4-1.1-1-2.9-1-3c0,0.1-0.5,1.8-1,3l-2.2,5.5H403.5z"/>
	<path class="st1" d="M412.8,199.3h3.2v17.6h9.4v2.8h-12.6V199.3z"/>
	<path class="st1" d="M429.1,199.3h13v2.8h-9.8v6h8.7v2.7h-8.7v6.1h10.2v2.8h-13.4V199.3z"/>
	<path class="st1" d="M97.6,229h5.6c6.5,0,10.9,4.1,10.9,10.2c0,6.1-4.3,10.2-10.9,10.2h-5.6V229z M103,246.6c5.3,0,7.8-3.1,7.8-7.4
		c0-4.4-2.5-7.4-7.8-7.4h-2.2v14.8H103z"/>
	<path class="st1" d="M117.6,232.6c-0.6-0.2-1.1-0.9-1.1-1.8c0-1.1,0.9-2,1.9-2c1.1,0,2,0.8,2,2c0,0.7-0.2,1.2-0.6,1.9l-1.7,3.2
		h-1.5L117.6,232.6z"/>
	<path class="st1" d="M127.6,228.8h0.4l8.9,20.6h-3.3l-1.5-3.7h-8.7l-1.5,3.7h-3.1L127.6,228.8z M130.9,243.1l-2.2-5.5
		c-0.4-1.1-1-2.9-1-3c0,0.1-0.5,1.8-1,3l-2.2,5.5H130.9z"/>
	<path class="st1" d="M137.6,239.2c0-6.1,4.7-10.4,10.5-10.4c3.7,0,6.4,1.4,8.2,4.1l-2.4,1.7c-1.1-1.8-3.1-2.9-5.7-2.9
		c-4.2,0-7.2,3.2-7.2,7.6c0,4.3,3,7.6,7.2,7.6c2.8,0,4.7-1.3,6-3.2l2.4,1.7c-1.8,2.7-4.6,4.3-8.5,4.3
		C142.3,249.7,137.6,245.3,137.6,239.2z"/>
	<path class="st1" d="M164.5,231.8h-6.1V229h15.3v2.8h-6.1v17.6h-3.2V231.8z"/>
	<path class="st1" d="M177.2,229h13v2.8h-9.8v6h8.7v2.7h-8.7v6.1h10.2v2.8h-13.4V229z"/>
	<path class="st1" d="M194.5,242.3V229h3.2v13c0,3.3,1.6,4.8,4.6,4.8s4.6-1.5,4.6-4.8v-13h3.1v13.2c0,5-3.4,7.4-7.8,7.4
		C197.8,249.7,194.5,247.2,194.5,242.3z"/>
	<path class="st1" d="M214.9,229h6.8c4.2,0,7.4,2,7.4,6.5c0,3-1.6,5-4.1,5.8l4.8,8.1h-3.6l-4.4-7.6H218v7.6h-3.2V229z M221.6,239.2
		c2.7,0,4.3-1.1,4.3-3.7c0-2.6-1.6-3.7-4.3-3.7H218v7.4H221.6z"/>
	<path class="st1" d="M232.2,239.9c0-1.2,1-2,2.1-2c1.1,0,2,0.8,2,2c0,1.2-1,2.1-2,2.1C233.1,242,232.2,241.1,232.2,239.9z"/>
	<path class="st1" d="M240,229h6.8c4.2,0,7.4,2,7.4,6.5c0,3-1.6,5-4.1,5.8l4.8,8.1h-3.6l-4.4-7.6h-3.7v7.6H240V229z M246.7,239.2
		c2.7,0,4.3-1.1,4.3-3.7c0-2.6-1.6-3.7-4.3-3.7h-3.5v7.4H246.7z"/>
	<path class="st1" d="M258.6,229h3.1v20.4h-3.1V229z"/>
	<path class="st1" d="M265.9,239.2c0-6.1,4.7-10.4,10.5-10.4c3.7,0,6.4,1.4,8.2,4.1l-2.4,1.7c-1.1-1.8-3.1-2.9-5.7-2.9
		c-4.2,0-7.2,3.2-7.2,7.6c0,4.3,3,7.6,7.2,7.6c2.8,0,4.7-1.3,6-3.2l2.4,1.7c-1.8,2.7-4.6,4.3-8.5,4.3
		C270.5,249.7,265.9,245.3,265.9,239.2z"/>
	<path class="st1" d="M288.4,229h13v2.8h-9.8v6h8.7v2.7h-8.7v6.1h10.2v2.8h-13.4V229z"/>
	<path class="st1" d="M304.8,239.9c0-1.2,1-2,2.1-2c1.1,0,2,0.8,2,2c0,1.2-1,2.1-2,2.1C305.8,242,304.8,241.1,304.8,239.9z"/>
	<path class="st1" d="M310.9,245.5l2.6-1.4c1,1.6,2.2,2.8,4.7,2.8c2.1,0,3.5-1.1,3.5-2.8c0-1.8-1.2-2.5-3.4-3.5l-1.4-0.6
		c-3-1.3-4.8-2.8-4.8-6c0-3,2.3-5.2,5.7-5.2c2.7,0,4.5,1,5.8,3.2l-2.5,1.5c-0.8-1.3-1.7-2-3.3-2c-1.6,0-2.6,1-2.6,2.4
		c0,1.5,0.9,2.2,2.9,3.1l1.3,0.6c3.5,1.5,5.3,3.1,5.3,6.4c0,3.6-2.8,5.6-6.6,5.6C314.3,249.7,312,247.8,310.9,245.5z"/>
	<path class="st1" d="M97.6,258.8h5.6c6.5,0,10.9,4.1,10.9,10.2c0,6.1-4.3,10.2-10.9,10.2h-5.6V258.8z M103,276.4
		c5.3,0,7.8-3.1,7.8-7.4c0-4.4-2.5-7.4-7.8-7.4h-2.2v14.8H103z"/>
	<path class="st1" d="M118,258.8h13v2.8h-9.8v6h8.7v2.7h-8.7v6.1h10.2v2.8H118V258.8z"/>
	<path class="st1" d="M142.5,258.8h5.6c6.5,0,10.9,4.1,10.9,10.2c0,6.1-4.3,10.2-10.9,10.2h-5.6V258.8z M147.9,276.4
		c5.3,0,7.8-3.1,7.8-7.4c0-4.4-2.5-7.4-7.8-7.4h-2.2v14.8H147.9z"/>
	<path class="st1" d="M168.4,258.5h0.4l8.9,20.6h-3.3l-1.5-3.7h-8.7l-1.5,3.7h-3.1L168.4,258.5z M171.8,272.8l-2.2-5.5
		c-0.4-1.1-1-2.9-1-3c0,0.1-0.5,1.8-1,3l-2.2,5.5H171.8z"/>
	<path class="st1" d="M181.1,258.8h3.2v8c0,1-0.1,2.2-0.2,3c0.5-0.9,1.1-2,1.6-2.7l6.7-8.3h3.6l-7.2,9l8,11.4h-3.8l-6.3-9l-2.3,2.8
		v6.2h-3.2V258.8z"/>
	<path class="st1" d="M207,258.5h0.4l8.9,20.6H213l-1.5-3.7h-8.7l-1.5,3.7h-3.1L207,258.5z M210.4,272.8l-2.2-5.5
		c-0.4-1.1-1-2.9-1-3c0,0.1-0.5,1.8-1,3l-2.2,5.5H210.4z"/>
	<path class="st1" d="M219.7,258.8h6.8c4.2,0,7.4,2,7.4,6.5c0,3-1.6,5-4.1,5.9l4.8,8.1h-3.6l-4.4-7.6h-3.7v7.6h-3.2V258.8z
		 M226.4,268.9c2.7,0,4.3-1.1,4.3-3.7c0-2.6-1.6-3.7-4.3-3.7h-3.5v7.4H226.4z"/>
</g>
</svg>
